<svg xmlns="http://www.w3.org/2000/svg" viewBox="0 0 512 512">
  <rect width="512" height="512" fill="#ffffff"/>
  <path d="M 76 148 L 80 147 L 85 147 L 90 147 L 95 147 L 100 147 L 105 148 L 110 148 L 115 148 L 119 148 L 124 148 L 129 148 L 134 148 L 139 148 L 144 148 L 149 148 L 154 149 L 159 158 L 163 167 L 168 177 L 173 188 L 178 196 L 183 207 L 188 215 L 193 226 L 198 236 L 203 245 L 207 253 L 212 264 L 217 273 L 222 282 L 227 292 L 232 301 L 237 312 L 242 321 L 247 330 L 251 340 L 256 348 L 261 345 L 266 336 L 271 326 L 276 316 L 281 308 L 286 297 L 291 288 L 295 278 L 300 269 L 305 260 L 310 251 L 315 241 L 320 232 L 325 222 L 330 212 L 335 203 L 339 193 L 344 184 L 349 174 L 354 164 L 359 155 L 364 147 L 369 136 L 374 126 L 378 118 L 383 107 L 388 99 L 393 88 L 398 81 L 403 77 L 408 76 L 413 76 L 418 76 L 422 76 L 427 76 L 432 77 L 432 86 L 427 96 L 422 106 L 418 117 L 413 125 L 408 134 L 403 145 L 398 155 L 393 163 L 388 174 L 383 182 L 378 193 L 374 201 L 369 212 L 364 222 L 359 232 L 354 241 L 349 251 L 344 260 L 339 270 L 335 281 L 330 289 L 325 300 L 320 308 L 315 318 L 310 329 L 305 338 L 300 347 L 295 357 L 291 366 L 286 377 L 281 386 L 276 396 L 271 405 L 266 415 L 261 425 L 256 434 L 251 436 L 247 436 L 242 436 L 237 436 L 232 436 L 227 436 L 222 434 L 217 425 L 212 416 L 207 405 L 203 397 L 198 388 L 193 378 L 188 368 L 183 360 L 178 349 L 173 341 L 168 331 L 163 321 L 159 311 L 154 303 L 149 292 L 144 285 L 139 274 L 134 263 L 129 255 L 124 245 L 119 237 L 115 227 L 110 216 L 105 208 L 100 197 L 95 189 L 90 180 L 85 170 L 80 159 L 76 151 Z" fill="#000000"/>
</svg>